<?xml version="1.0" encoding="UTF-8"?>
<svg id="_레이어_1" data-name="레이어 1" xmlns="http://www.w3.org/2000/svg" viewBox="0 0 576.36 804.66">
  <defs>
    <style>
      .cls-1 {
        fill: #fff;
        stroke-width: 0px;
      }
    </style>
  </defs>
  <path class="cls-1" d="M364.01,19.85c-10.09-10.44-65.73-26.87-55.8-16.6,66.37,68.61,133.85,144.92,179.15,229.32,18.21,33.93,47.82,91.02,6.13,118.95-44.6,29.89-133.86,2.57-180.95-6.58-51.95-10.09-251.32-79.97-286.14-7.24-8.91,18.6.46,41.62,6.48,59.25,17.65,51.71,42.23,102.25,63.24,152.67,19.46,46.68,39.05,93.32,58.73,139.9-33.53-21.81-67.05-43.62-100.58-65.43-31.25-20.33-76.39,26.92-41.85,49.4,64.41,41.91,128.82,83.81,193.23,125.72,23.55,15.32,52.58-3.89,53.6-29.79,3.02-76.81,6.05-153.62,9.07-230.43,1.54-39.14-63.9-26.92-65.36,10.19-1.62,41.12-3.24,82.25-4.86,123.38-13.97-33.24-28-66.45-41.87-99.73-22.1-53.03-52.04-107.8-67.2-163.16-4.93-17.99-10.05-38.1,4.16-53.27,34.27-36.59,130.24-5.82,170.53,2.12,63.81,12.59,127.6,28.55,192.6,33.68,33.99,2.68,94.57,8.08,113.95-28.81,19.62-37.38-13.07-91.45-31.24-122.45-47.27-80.65-110.17-154.03-175.03-221.08h0Z"/>
</svg>