<?xml version="1.0" encoding="UTF-8"?>
<svg id="_레이어_1" data-name="레이어 1" xmlns="http://www.w3.org/2000/svg" viewBox="0 0 806.38 853.48">
  <defs>
    <style>
      .cls-1 {
        fill: #fff;
        stroke-width: 0px;
      }
    </style>
  </defs>
  <path class="cls-1" d="M744.73,763.04c4.6-38.14,12.04-76.54,9.17-114.87-9.33-124.5-135.95-36.28-195.27,11.78,12.2-24.32,23.23-49.68,34.83-73.39,48.57-99.27,100.32-212.6,103.99-324.94,4.66-142.69-158.3-161.02-266.91-157.9-105.54,3.04-212.91,22.59-315.64,50.91,31.04-36.23,62.07-72.45,93.11-108.68,28.16-32.87-25.01-63.66-50.48-33.93C107.52,70.39,57.5,128.77,7.49,187.14c-16.69,19.48-3.38,42.88,19.39,46.81,75.76,13.07,151.52,26.15,227.27,39.22,38.78,6.69,54.12-52.37,11.7-59.69-50.85-8.77-101.7-17.55-152.55-26.33,93.27-26.93,190.84-46.02,287.27-50.95,63.94-3.27,149.04-4.29,198.87,43.48,68.02,65.21,17.98,191.56-8.23,264.71-32.16,89.77-86.7,169.97-119.14,258.78-17.69,48.41,27.69,46.44,62.73,27.96,23.14-12.2,42.95-29.77,62.13-47.31,19.82-18.13,39.76-34.67,61.3-50.71,7.65-5.7,20.18-16.2,24.92-2.84,6.15,17.32,4.43,37.2,4.21,55.23-.26,21.63-2.66,43.17-5.21,64.63-3.13,26.38-20.52,80.26,7.33,97.09,48,29.02,95.85-50.62,114.43-78.69,15.73-23.73-48-21.65-59.15-5.51v.02Z"/>
</svg>