<?xml version="1.0" encoding="UTF-8"?>
<svg id="_레이어_1" data-name="레이어 1" xmlns="http://www.w3.org/2000/svg" viewBox="0 0 690.45 616.8">
  <defs>
    <style>
      .cls-1 {
        fill: #fff;
        stroke-width: 0px;
      }
    </style>
  </defs>
  <path class="cls-1" d="M3.47,600c84,0,164.4,9.6,248.4,16.8,1.2,0,4.8-45.6-1.2-46.8-27.6-7.2-57.6-12-86.4-15.6,104.4-37.2,200.4-102,285.6-166.8,116.4-88.8,211.2-205.2,240-351.6,2.4-10.8-3.6-28.8-1.2-36-31.2,150-134.4,264-256.8,350.4-110.4,79.2-237.6,156-374.4,171.6,13.2-12,26.4-24,34.8-33.6,25.2-28.8,49.2-58.8,68.4-92.4,2.4-4.8-3.6-20.4-1.2-24-34.8,37.2-66,78-103.2,112.8-24,22.8-51.6,38.4-55.2,73.2-1.21,6-2.41,42,2.39,42h0Z"/>
</svg>