<?xml version="1.0" encoding="UTF-8"?>
<svg id="_레이어_1" data-name="레이어 1" xmlns="http://www.w3.org/2000/svg" viewBox="0 0 960 959.99">
  <defs>
    <style>
      .cls-1 {
        fill: #fff;
        stroke-width: 0px;
      }
    </style>
  </defs>
  <path class="cls-1" d="M480.04,119.32c6.63,0,12-5.37,12-12V12c0-6.63-5.37-12-12-12s-12,5.37-12,12v95.32c0,6.62,5.38,12,12,12Z"/>
  <path class="cls-1" d="M284.53,117.36l-28.1-48.67c-3.33-5.74-10.64-7.71-16.39-4.39-5.74,3.32-7.7,10.65-4.39,16.4l28.1,48.67c2.23,3.85,6.26,6,10.41,6,2.04,0,4.1-.52,5.99-1.61,5.74-3.32,7.7-10.65,4.39-16.4h0Z"/>
  <path class="cls-1" d="M163.27,283.23l-82.55-47.66c-5.76-3.33-13.08-1.34-16.4,4.39-3.31,5.74-1.35,13.08,4.39,16.39l82.55,47.66c1.89,1.09,3.95,1.61,5.99,1.61,4.15,0,8.18-2.15,10.41-6,3.31-5.74,1.35-13.08-4.39-16.39h0Z"/>
  <path class="cls-1" d="M12,491.96h56.2c6.63,0,12-5.37,12-12s-5.37-12-12-12H12c-6.63,0-12,5.37-12,12s5.37,12,12,12Z"/>
  <path class="cls-1" d="M151.23,655.92l-82.54,47.65c-5.74,3.32-7.7,10.65-4.39,16.4,2.23,3.85,6.26,6,10.41,6,2.04,0,4.1-.52,5.99-1.61l82.54-47.65c5.74-3.32,7.7-10.65,4.39-16.4-3.33-5.74-10.66-7.72-16.39-4.39h0Z"/>
  <path class="cls-1" d="M280.07,826.21c-5.75-3.33-13.08-1.34-16.39,4.39l-28.11,48.67c-3.31,5.73-1.35,13.08,4.39,16.4,1.89,1.09,3.95,1.61,5.99,1.61,4.15,0,8.18-2.15,10.41-6l28.11-48.67c3.31-5.73,1.35-13.08-4.39-16.4h0Z"/>
  <path class="cls-1" d="M467.96,852.68v95.32c0,6.63,5.37,12,12,12s12-5.37,12-12v-95.32c0-6.63-5.37-12-12-12s-12,5.38-12,12Z"/>
  <path class="cls-1" d="M696.26,830.64c-3.32-5.73-10.65-7.72-16.4-4.39-5.74,3.32-7.7,10.65-4.39,16.4l28.1,48.67c2.23,3.85,6.26,6,10.41,6,2.04,0,4.1-.52,5.99-1.61,5.74-3.32,7.7-10.65,4.39-16.4l-28.1-48.67Z"/>
  <path class="cls-1" d="M796.73,676.77l82.55,47.66c1.89,1.09,3.95,1.61,5.99,1.61,4.15,0,8.18-2.15,10.41-6,3.31-5.74,1.35-13.08-4.39-16.4l-82.55-47.66c-5.77-3.32-13.08-1.35-16.4,4.39-3.31,5.74-1.35,13.08,4.39,16.4h0Z"/>
  <path class="cls-1" d="M960,480.04c0-6.63-5.37-12-12-12h-56.2c-6.63,0-12,5.37-12,12s5.37,12,12,12h56.2c6.63,0,12-5.37,12-12Z"/>
  <path class="cls-1" d="M802.79,305.69c2.04,0,4.1-.52,5.99-1.61l82.54-47.65c5.74-3.32,7.7-10.65,4.39-16.39-3.32-5.73-10.65-7.72-16.4-4.39l-82.54,47.65c-5.74,3.32-7.7,10.65-4.39,16.39,2.23,3.85,6.26,6,10.41,6h0Z"/>
  <path class="cls-1" d="M720.04,64.32c-5.75-3.32-13.09-1.35-16.4,4.39l-28.11,48.67c-3.31,5.73-1.35,13.08,4.39,16.4,1.89,1.09,3.95,1.61,5.99,1.61,4.15,0,8.18-2.15,10.41-6l28.11-48.67c3.31-5.73,1.35-13.08-4.39-16.4h0Z"/>
  <path class="cls-1" d="M631.14,579.29c4.15,0,8.18-2.15,10.41-6,3.31-5.73,1.35-13.08-4.39-16.4l-145.15-83.82v-179.61c0-6.63-5.37-12-12-12s-12,5.37-12,12v186.54c0,4.29,2.29,8.25,6,10.4l151.15,87.29c1.89,1.09,3.96,1.61,5.99,1.61h0Z"/>
</svg>