<?xml version="1.0" encoding="UTF-8"?>
<svg id="_레이어_1" data-name="레이어 1" xmlns="http://www.w3.org/2000/svg" viewBox="0 0 944.94 1020.01">
  <defs>
    <style>
      .cls-1 {
        fill: #fff;
        stroke-width: 0px;
      }
    </style>
  </defs>
  <path class="cls-1" d="M53.58,501.39c0,133.5,62.62,252.75,160.5,329.62l-102.75,128.25c-12.75,16.12-10.12,39.75,6,52.5,6.75,5.62,15,8.25,23.25,8.25,11.25,0,22.12-4.88,29.25-14.25l107.25-133.5c58.5,30.75,124.88,48.38,195.38,48.38s136.88-17.62,195.38-48.38l107.25,133.5c7.12,9.38,18,14.25,29.25,14.25,8.25,0,16.5-2.62,23.25-8.25,16.12-12.75,18.75-36.38,6-52.5l-102.75-128.25c97.88-76.88,160.5-196.12,160.5-329.62,0-231-187.88-418.88-418.88-418.88S53.58,270.39,53.58,501.39ZM434.96,285.77c0-20.62,16.88-37.5,37.5-37.5s37.5,16.88,37.5,37.5v198l103.12,88.88c15.75,13.5,17.25,37.12,3.75,52.88-7.12,8.62-17.62,13.12-28.12,13.12-9,0-17.62-3-24.75-9.38l-115.88-99.75c-8.25-7.12-13.12-17.62-13.12-28.5v-215.25Z"/>
  <path class="cls-1" d="M37.42,205.51c11.32,0,22.5-5.1,29.89-14.81,36.82-48.41,81.56-89.25,132.94-121.43,17.55-10.99,22.88-34.12,11.89-51.68C201.15.04,178.01-5.25,160.46,5.7,101.4,42.68,49.98,89.66,7.65,145.27c-12.52,16.46-9.34,40.01,7.12,52.54,6.79,5.18,14.77,7.65,22.65,7.65v.05Z"/>
  <path class="cls-1" d="M744.67,69.27c51.38,32.18,96.07,73.01,132.94,121.43,7.39,9.71,18.56,14.81,29.89,14.81,7.91,0,15.9-2.48,22.65-7.65,16.46-12.52,19.69-36.07,7.12-52.54-42.34-55.61-93.75-102.6-152.81-139.57-17.59-10.95-40.69-5.66-51.68,11.89-10.99,17.55-5.66,40.69,11.89,51.68v-.05Z"/>
</svg>