<?xml version="1.0" encoding="UTF-8"?>
<svg id="_레이어_1" data-name="레이어 1" xmlns="http://www.w3.org/2000/svg" viewBox="0 0 900.01 899.78">
  <defs>
    <style>
      .cls-1 {
        fill: #fff;
        stroke-width: 0px;
      }
    </style>
  </defs>
  <path class="cls-1" d="M743.45.24c-3.05-.23-6.09-.23-9.14-.23h-.47c-37.97,0-75,12.66-104.53,35.39-3.75,3.05-6.09,7.5-6.33,12.19s1.88,9.38,5.39,12.66l210.47,188.67c3.05,2.58,6.8,4.22,10.78,4.22h.94c4.45-.23,8.44-2.34,11.25-5.62,21.56-24.84,38.2-44.06,38.2-85.78.23-85.31-68.2-156.56-156.56-161.48h0ZM0,161.72C0,203.44,16.65,222.66,38.21,247.5c2.81,3.28,6.8,5.39,11.25,5.62h.94c3.98,0,7.73-1.41,10.78-4.22L271.88,60.24c3.52-3.28,5.62-7.73,5.39-12.66-.23-4.69-2.34-9.14-6.33-12.19C241.41,12.66,204.38,0,166.41,0h-.47c-3.05,0-6.09,0-9.14.23C68.44,5.16-.23,76.41,0,161.71h0Z"/>
  <path class="cls-1" d="M764.07,754.7c61.41-71.95,98.44-165.23,98.44-267.19,0-227.81-184.69-412.5-412.5-412.5S37.5,259.7,37.5,487.51c0,101.95,37.03,195.23,98.44,267.19l-81.33,83.2c-14.53,14.77-14.06,36.33.7,50.63,7.27,7.03,17.34,11.25,26.72,11.25,9.84,0,18.98-4.45,26.25-11.95l81.09-80.86c71.02,57.89,161.72,92.81,260.62,92.81s189.61-34.69,260.62-92.81l78.75,80.86c7.27,7.5,17.11,11.95,26.95,11.95s18.98-4.22,26.25-11.25c14.77-14.53,17.58-35.86,3.05-50.62l-81.55-83.2ZM482.82,492.2c0,18.05-14.77,32.81-32.81,32.81h-192.19c-18.05,0-32.81-14.77-32.81-32.81s14.77-32.81,32.81-32.81h159.38v-239.06c0-18.05,14.77-32.81,32.81-32.81s32.81,14.77,32.81,32.81v271.87Z"/>
</svg>