<?xml version="1.0" encoding="UTF-8"?>
<svg id="_레이어_1" data-name="레이어 1" xmlns="http://www.w3.org/2000/svg" viewBox="0 0 993.8 994.29">
  <defs>
    <style>
      .cls-1 {
        fill: #fff;
        stroke-width: 0px;
      }
    </style>
  </defs>
  <path class="cls-1" d="M852.97,150.92c-44.98-46.35-98.48-83.59-157.56-109.68C604.94,1.94,504.85-9.62,407.81,8.05c-97.04,17.67-186.64,63.76-257.45,132.43-47.42,46.37-85.19,101.68-111.12,162.72C13.34,364.45,0,430.26,0,496.76s13.34,132.32,39.24,193.56c25.93,61.05,63.7,116.36,111.12,162.72,47.14,46.07,102.99,82.3,164.28,106.56,105.71,41.72,222.54,45.93,330.98,11.93s201.95-104.15,264.93-198.76c62.98-94.6,91.61-207.94,81.13-321.11-10.48-113.16-59.44-219.32-138.73-300.75h.02ZM834.49,825.08c-71.41,69.54-163.6,113.8-262.51,126.05-98.91,12.25-199.11-8.2-285.32-58.22-86.21-50.02-153.69-126.86-192.14-218.81s-45.78-193.95-20.85-290.45c24.93-96.5,80.74-182.2,158.91-244.02,78.18-61.82,174.43-96.37,274.08-98.38,91.28-2.16,181.09,23.18,257.79,72.71,76.7,49.54,136.72,121,172.29,205.09,23.93,56.36,36.26,116.97,36.26,178.2s-12.33,121.84-36.26,178.2c-23.85,56.15-58.6,107.01-102.24,149.64h0Z"/>
  <path class="cls-1" d="M536.41,488.6l-19.56-333.48c0-5.63-4.57-10.2-10.2-10.2s-10.2,4.57-10.2,10.2l-19.8,336.72c-.06,1.16-.06,2.32,0,3.48-.52,7.57,1.88,15.04,6.72,20.88l159,192c3.32,4.61,9.73,5.65,14.34,2.34,4.61-3.32,5.66-9.73,2.34-14.34l-122.64-207.6Z"/>
</svg>