<?xml version="1.0" encoding="UTF-8"?>
<svg id="_레이어_1" data-name="레이어 1" xmlns="http://www.w3.org/2000/svg" viewBox="0 0 1003.87 1089.55">
  <defs>
    <style>
      .cls-1 {
        fill: gray;
        stroke-width: 0px;
      }
    </style>
  </defs>
  <path class="cls-1" d="M859.68,191.55v722.82c0,14.41.12,28.83,0,43.24,0,3.87-.23,7.62-.59,11.37-.12,1.76-1.17,3.52.23-1.41-.23.94-.35,2.11-.47,3.16-.47,2.58-1.05,5.16-1.64,7.73-1.05,4.34-2.93,8.44-4.1,12.66-.82,3.05,1.99-4.1.59-1.29-.47.94-.82,1.88-1.29,2.81-1.05,2.34-2.34,4.57-3.63,6.8-.82,1.41-5.62,11.02-7.15,10.9,0,0,3.75-4.57.82-1.17-.7.82-1.29,1.52-1.99,2.34-1.64,1.99-3.4,3.87-5.16,5.62-3.05,3.05-6.45,5.74-9.61,8.67-2.34,2.11,3.75-2.58,1.05-.82-.82.59-1.64,1.17-2.46,1.76-2.11,1.41-4.22,2.81-6.45,4.1-1.99,1.17-3.98,2.23-6.09,3.28-.82.47-4.69,2.93-5.62,2.58,0,0,5.51-2.11,1.29-.59-.94.35-1.99.7-2.93,1.05-2.46.82-4.92,1.64-7.5,2.34-1.99.59-4.1,1.05-6.09,1.52-1.05.23-2.11.47-3.16.59-.47.12-5.74.82-1.64.35,3.63-.47,0,0-.94,0-1.05.12-2.11.23-3.28.23-2.46.12-4.92.23-7.38.23H225.92c-2.23-.12-4.34-.23-6.45-.35,0,0-3.05-.12-3.16-.35,1.17,1.41,4.8.7.7,0-4.69-.82-9.26-1.88-13.83-3.28-2.23-.7-4.45-1.52-6.68-2.34-3.16-1.05.35.82,1.29.59-.35.12-2.81-1.29-2.81-1.29-4.22-1.99-8.2-4.22-12.19-6.68-1.76-1.05-3.4-2.34-5.04-3.4-3.63-2.46.94.94,1.05.94-.82-.12-2.34-1.88-2.93-2.46-3.52-2.93-6.8-6.09-9.96-9.49-1.52-1.64-3.05-3.4-4.45-5.16-2.23-2.7.35,1.05.82,1.17-.23,0-1.88-2.58-1.76-2.46-2.7-3.75-5.04-7.73-7.15-11.84-.94-1.88-1.88-3.75-2.7-5.51-1.99-4.1.47,1.29.59,1.29-.47-.12-1.17-3.05-1.41-3.63-1.64-4.45-2.93-9.02-3.87-13.59-.23-.94-1.88-6.45-1.29-7.03,0,0,.59,6.09.23,1.41-.12-1.05-.23-2.11-.23-3.28-.23-2.7-.23-5.51-.35-8.2V191.32c0-12.3-10.78-24.02-23.44-23.44-12.66.59-23.44,10.31-23.44,23.44v727.26c0,16.64-1.17,33.75.59,50.39,4.45,42.54,27.77,81.09,65.16,102.77,21.33,12.31,45.23,17.81,69.73,17.81h538.7c25.2,0,50.16-5.98,71.72-19.34,37.15-22.97,60.35-62.58,62.93-106.05.35-5.51.23-11.02.23-16.52V191.31c0-12.3-10.78-24.02-23.44-23.44-12.77.7-23.44,10.43-23.44,23.67h.02Z"/>
  <path class="cls-1" d="M980.41,162.25H62.6c-12.42,0-24.96-.23-37.5,0h-1.64c-12.31,0-24.02,10.78-23.44,23.44.59,12.66,10.31,23.44,23.44,23.44h917.81c12.42,0,24.96.23,37.5,0h1.64c12.31,0,24.02-10.78,23.44-23.44-.59-12.77-10.31-23.44-23.44-23.44Z"/>
  <path class="cls-1" d="M778.71,185.69v-73.12c0-12.42.23-24.38-1.99-36.68-4.57-25.19-21.09-47.46-42.42-61.29C714.26,1.71,692.11.07,669.26.07h-323.55c-14.3,0-28.48-.59-42.66,1.64-25.78,3.98-48.28,20.16-62.7,41.48-10.9,16.17-15.35,35.62-15.35,54.84v87.54c0,12.31,10.78,24.02,23.44,23.44s23.44-10.31,23.44-23.44v-86.6c0-3.98.7-8.32.47-12.19.35,5.16-.47,2.93,0,.7.23-1.29.59-2.58.82-3.87.59-2.58,1.52-4.92,2.34-7.5,1.41-4.34-.47,1.41-.59,1.29-.23-.23,1.88-3.75,1.99-4.1,1.17-2.23,2.46-4.45,3.98-6.56.23-.47.59-.82.82-1.29,1.52-1.99,1.17-1.64-.94,1.05-.12-.12,1.64-1.99,1.99-2.34,1.64-1.88,3.4-3.75,5.27-5.39.94-.82,1.99-1.64,2.93-2.46,2.23-2.34-4.69,3.16-.47.47,2.58-1.64,5.04-3.4,7.85-4.8.94-.47,1.88-.94,2.7-1.41,4.45-2.34-3.75.94-.59.23,2.23-.59,4.45-1.52,6.68-2.23.7-.23,7.38-2.23,7.73-1.64-1.05.12-1.99.23-3.05.35,1.05-.12,2.11-.23,3.16-.23,1.64-.12,3.28-.12,4.92-.12h262.62c34.34,0,68.67-.82,103.01,0,1.05,0,2.23.12,3.28.12.59,0,5.62.94,1.64.12-4.1-.82,1.05.23,1.64.35,1.29.23,2.58.59,3.87.94,2.23.59,4.45,1.41,6.68,2.11,5.16,1.64-4.57-2.46.12,0,1.41.7,2.7,1.41,4.1,2.11,2.23,1.29,4.34,2.7,6.45,4.1,3.75,2.46-1.17-.82-1.05-.94.35-.12,3.16,2.7,3.52,2.93,1.64,1.52,3.28,3.16,4.8,4.92.35.35,2.58,2.58,2.46,2.93-2.11-2.7-2.34-3.16-.94-1.05.23.47.59.82.82,1.29,1.41,2.11,2.7,4.34,3.98,6.56.59,1.05,1.05,2.34,1.76,3.4,1.76,2.7-1.88-5.51-.23-.59.82,2.46,1.64,4.92,2.34,7.5.23,1.05.47,1.99.7,3.05s.35,2.11.59,3.16c-.47-3.28-.47-4.1-.35-2.23.23,3.98.35,7.97.35,11.95v86.02c0,12.31,10.78,24.02,23.44,23.44,12.54-.59,23.2-10.31,23.2-23.44h-.01Z"/>
  <path class="cls-1" d="M268.36,339.21v507.88c0,23.55-.59,47.11,0,70.55v1.05c0,12.3,10.78,24.02,23.44,23.44s23.44-10.31,23.44-23.44v-507.88c0-23.55.59-47.11,0-70.55v-1.05c0-12.3-10.78-24.02-23.44-23.44-12.77.47-23.44,10.2-23.44,23.44h0Z"/>
  <path class="cls-1" d="M525.35,918.46v-507.88c0-23.55.59-47.11,0-70.55v-1.05c0-12.3-10.78-24.02-23.44-23.44-12.66.59-23.44,10.31-23.44,23.44v507.88c0,23.55-.59,47.11,0,70.55v1.05c0,12.3,10.78,24.02,23.44,23.44s23.44-10.31,23.44-23.44Z"/>
  <path class="cls-1" d="M735.46,918.46v-507.88c0-23.55.59-47.11,0-70.55v-1.05c0-12.3-10.78-24.02-23.44-23.44-12.66.59-23.44,10.31-23.44,23.44v507.88c0,23.55-.59,47.11,0,70.55v1.05c0,12.3,10.78,24.02,23.44,23.44,12.77-.59,23.44-10.31,23.44-23.44Z"/>
</svg>