<?xml version="1.0" encoding="UTF-8"?>
<svg id="_레이어_1" data-name="레이어 1" xmlns="http://www.w3.org/2000/svg" viewBox="0 0 577.07 397.18">
  <defs>
    <style>
      .cls-1 {
        fill: #999;
        stroke-width: 0px;
      }
    </style>
  </defs>
  <path class="cls-1" d="M136.08,396.11c67.56-9.24,111.24-71.04,104.76-132-8.04-75.96-84.72-126.6-157.2-102.72-15.24,5.04-28.68,13.08-41.88,23.4.24-1.92.24-2.64.48-3.12,22.32-64.56,56.76-120.12,117.24-156,7.68-4.56,9.6-12.36,5.4-19.2-3.96-6.48-12.12-8.76-19.08-3.72-15.48,11.04-31.68,21.72-45.6,34.56-31.08,28.8-53.64,63.96-70.44,102.6C9.6,186.35-2.63,234.71.48,285.71c4.2,68.16,68.04,119.64,135.6,110.4h0Z"/>
  <path class="cls-1" d="M336.36,288.83c5.76,66.6,69.12,116.28,135.48,107.28,66.36-9,114.96-71.16,103.56-140.04-12.72-76.32-95.88-122.16-166.44-90.48-10.8,4.92-20.88,11.76-31.2,17.64,0-.48,0-1.44.36-2.4,22.32-64.08,56.64-119.16,116.64-154.92,8.04-4.8,9.96-12.48,5.52-19.56-4.08-6.6-12-8.4-19.56-3.12-12.96,8.88-26.52,17.4-38.16,27.84-40.44,36-67.8,81-86.16,131.64-14.76,40.8-23.76,82.68-19.92,126.36l-.12-.24Z"/>
</svg>