<?xml version="1.0" encoding="UTF-8"?>
<svg id="_레이어_2" data-name="레이어 2" xmlns="http://www.w3.org/2000/svg" viewBox="0 0 837.31 766.26">
  <defs>
    <style>
      .cls-1 {
        fill: #777;
      }

      .cls-1, .cls-2 {
        stroke-width: 0px;
      }

      .cls-2 {
        fill: #eaeaea;
      }
    </style>
  </defs>
  <g id="_레이어_1-2" data-name="레이어 1">
    <g>
      <rect class="cls-2" width="837.31" height="766.26" rx="60.88" ry="60.88"/>
      <g>
        <path class="cls-1" d="M239.09,526.34c-4.2.17-8.17,1.99-11.03,5.08-2.86,3.08-4.38,7.18-4.22,11.38,1.01,25.81,11.7,50.3,29.94,68.6,18.24,18.3,42.69,29.06,68.5,30.16h4.01c22.53.07,44.45-7.32,62.35-21.01,17.89-13.69,30.76-32.92,36.6-54.68,3.07-12.19,7.64-23.95,13.6-35.01l.57-.95c17.64-30.59,43.02-55.99,73.59-73.66,35.2-20.78,63.37-51.64,80.85-88.59,17.48-36.95,23.49-78.29,17.23-118.69-6.26-40.4-24.49-77.99-52.33-107.92-27.84-29.93-64.02-50.83-103.86-59.99-39.84-9.16-81.51-6.16-119.63,8.61-38.12,14.77-70.93,40.63-94.2,74.24-2.52,3.47-3.53,7.81-2.8,12.03.73,4.22,3.13,7.97,6.66,10.4,3.53,2.43,7.89,3.32,12.1,2.49,4.2-.84,7.89-3.33,10.22-6.93,14.3-20.78,33.02-38.13,54.82-50.82,21.8-12.69,46.13-20.4,71.26-22.58,39.05-3.62,78.17,6.18,110.9,27.77,32.73,21.6,57.13,53.71,69.17,91.03,12.04,37.32,10.99,77.64-2.96,114.29-13.95,36.65-39.97,67.46-73.78,87.33-35.34,20.56-64.65,50.06-84.97,85.54l-.57.95c-7.24,13.33-12.79,27.5-16.52,42.2-4.16,15.48-13.47,29.09-26.4,38.57-12.93,9.48-28.7,14.28-44.72,13.6-17.75-.95-34.52-8.45-47.07-21.04-12.55-12.59-19.98-29.39-20.87-47.15-.17-4.2-1.99-8.17-5.08-11.03-3.08-2.86-7.18-4.38-11.38-4.22h0Z"/>
        <path class="cls-1" d="M344.14,358.37l-76.26,46.46c-3.97,1.99-6.93,5.56-8.15,9.83-1.22,4.27-.6,8.87,1.72,12.66,2.32,3.79,6.13,6.44,10.49,7.3,4.36.86,8.88-.15,12.47-2.78l76.26-46.39c17.46-10.29,28.96-28.29,30.97-48.45,2.01-20.16-5.72-40.08-20.8-53.61-15.08-13.53-35.71-19.06-55.54-14.88,1.19-4.79,2.85-9.45,4.96-13.92,7.31-15.65,18.54-29.14,32.6-39.16,14.07-10.02,30.48-16.23,47.66-18.03l-1.46-15.82,2.29,15.95c25.33-2.47,50.4,6.81,68.02,25.19,17.62,18.38,25.83,43.81,22.3,69.02-3.54,25.21-18.44,47.4-40.43,60.22-44.49,26.18-76.26,68.95-97.55,130.79-1.56,4.02-1.42,8.5.39,12.41,1.81,3.92,5.13,6.93,9.21,8.34s8.55,1.11,12.39-.84c3.85-1.95,6.74-5.38,8.01-9.5,19.07-55.16,45.76-91.39,83.76-113.88,22.57-13.22,39.94-33.75,49.26-58.19,9.32-24.44,10.01-51.32,1.97-76.21-8.04-24.89-24.33-46.28-46.19-60.65-21.85-14.37-47.96-20.84-73.99-18.36h-.95c-22.66,2.35-44.32,10.51-62.88,23.71-18.56,13.2-33.4,30.97-43.06,51.6-6.12,12.95-9.58,26.99-10.19,41.3-.61,14.31,1.64,28.59,6.63,42.02l4.2,11.12c1.36,4.1,4.33,7.46,8.22,9.33,3.89,1.86,8.38,2.06,12.42.55,4.04-1.51,7.3-4.6,9.01-8.56,1.72-3.96,1.75-8.45.08-12.43l-4.2-11.12c-1.33-3.62-2.37-7.34-3.11-11.12,7.14-3.28,15.25-3.79,22.75-1.45,7.5,2.35,13.86,7.39,17.86,14.16,4.26,7.24,5.48,15.86,3.39,24-2.09,8.13-7.3,15.11-14.51,19.41h0Z"/>
        <path class="cls-1" d="M508.42,584.36c25.41-.03,49.76-10.15,67.71-28.14,17.95-17.98,28.02-42.35,28-67.76,0-5.68-3.03-10.92-7.94-13.76-4.92-2.84-10.97-2.84-15.89,0-4.92,2.84-7.94,8.08-7.94,13.76.02,16.98-6.71,33.27-18.7,45.29-11.99,12.02-28.26,18.8-45.24,18.83-5.68,0-10.92,3.03-13.76,7.94-2.84,4.92-2.84,10.97,0,15.89,2.84,4.92,8.08,7.94,13.76,7.94h0Z"/>
        <path class="cls-1" d="M516.43,660.62c43.52-.05,85.24-17.36,116.02-48.13,30.77-30.77,48.08-72.5,48.13-116.02,0-5.68-3.03-10.92-7.94-13.76-4.92-2.84-10.97-2.84-15.89,0-4.92,2.84-7.94,8.08-7.94,13.76-.05,35.09-14.01,68.74-38.83,93.55-24.82,24.81-58.46,38.78-93.55,38.83-5.68,0-10.92,3.03-13.76,7.94-2.84,4.92-2.84,10.97,0,15.89s8.08,7.94,13.76,7.94h0Z"/>
      </g>
    </g>
  </g>
</svg>