<?xml version="1.0" encoding="UTF-8"?>
<svg id="_레이어_1" data-name="레이어 1" xmlns="http://www.w3.org/2000/svg" viewBox="0 0 789.28 786.03">
  <defs>
    <style>
      .cls-1 {
        fill: gray;
        stroke-width: 0px;
      }
    </style>
  </defs>
  <path class="cls-1" d="M20.77,786.03c1.88,0,3.75-.23,5.62-.7l235.31-64.92c12.66-3.52,24.14-10.08,33.28-19.45l456.09-456.09c24.61-24.61,38.2-57.19,38.2-92.11s-13.59-67.5-38.2-92.11l-22.5-22.5c-50.86-50.86-133.36-50.86-183.98,0L88.27,494.7c-8.91,8.91-15.47,19.92-18.98,32.11L.85,758.84c-2.11,7.27-.23,15.23,5.16,20.86,3.75,3.98,9.38,6.33,14.77,6.33h0ZM271.79,664.62l-146.72-146.72L407.02,235.95l146.72,146.72-281.95,281.95ZM436.56,205.95l62.81-62.81,146.72,146.72-62.81,62.81-146.72-146.72ZM574.61,68.14c16.64-16.64,38.67-25.78,62.11-25.78s45.7,9.14,62.11,25.78l22.5,22.5c34.22,34.22,34.22,90,0,124.45l-45.23,45.23-146.72-146.72,45.24-45.46ZM104.45,556.81l127.73,127.97-180.47,49.69,52.74-177.66Z"/>
</svg>