<?xml version="1.0" encoding="UTF-8"?>
<svg id="_레이어_1" data-name="레이어 1" xmlns="http://www.w3.org/2000/svg" viewBox="0 0 1017.87 1017.87">
  <defs>
    <style>
      .cls-1 {
        fill: #6c9f9c;
      }

      .cls-1, .cls-2 {
        stroke-width: 0px;
      }

      .cls-2 {
        fill: #eaeaea;
      }
    </style>
  </defs>
  <circle class="cls-2" cx="508.93" cy="508.93" r="508.93"/>
  <g>
    <path class="cls-1" d="M673.07,495.52c-8.7,0-17.05,3.47-23.21,9.62-6.16,6.16-9.62,14.5-9.62,23.21v229.79c0,11.73,6.26,22.57,16.41,28.43,10.16,5.87,22.67,5.87,32.83,0,10.16-5.86,16.41-16.7,16.41-28.43v-229.79c0-8.7-3.47-17.05-9.62-23.21-6.16-6.16-14.5-9.62-23.21-9.62Z"/>
    <path class="cls-1" d="M344.8,495.52c-8.7,0-17.05,3.47-23.21,9.62-6.16,6.16-9.62,14.5-9.62,23.21v229.79c0,11.73,6.26,22.57,16.41,28.43,10.16,5.87,22.67,5.87,32.83,0,10.16-5.86,16.41-16.7,16.41-28.43v-229.79c0-8.7-3.47-17.05-9.62-23.21-6.16-6.16-14.5-9.62-23.21-9.62Z"/>
    <path class="cls-1" d="M771.55,530.01v-67.32c0-69.65-27.67-136.45-76.92-185.7-49.25-49.25-116.05-76.92-185.7-76.92s-136.45,27.67-185.7,76.92c-49.25,49.25-76.92,116.05-76.92,185.7v67.32c-18.52,3.8-35.17,13.88-47.13,28.53-11.96,14.65-18.5,32.97-18.52,51.88v65.65c.02,21.76,8.67,42.62,24.06,58.01,15.39,15.39,36.25,24.04,58.01,24.06h16.41v-295.45c0-60.94,24.21-119.39,67.3-162.49,43.09-43.1,101.54-67.3,162.49-67.3s119.39,24.21,162.49,67.3c43.1,43.09,67.3,101.54,67.3,162.49v295.45h16.41c21.76-.02,42.62-8.67,58.01-24.06,15.39-15.39,24.04-36.25,24.06-58.01v-65.65c-.02-18.91-6.56-37.24-18.52-51.88-11.96-14.65-28.61-24.72-47.13-28.53Z"/>
  </g>
</svg>