<?xml version="1.0" encoding="UTF-8"?>
<svg id="_레이어_1" data-name="레이어 1" xmlns="http://www.w3.org/2000/svg" viewBox="0 0 302.52 544.37">
  <defs>
    <style>
      .cls-1 {
        fill: #999;
        stroke-width: 0px;
      }
    </style>
  </defs>
  <path class="cls-1" d="M285.76.09c-3.38.37-6.55,1.86-8.97,4.25L4.73,261.28c-3.02,2.86-4.73,6.83-4.73,10.98s1.71,8.13,4.73,10.98l272.06,256.95c2.91,2.77,6.8,4.28,10.82,4.18,4.02-.1,7.84-1.8,10.6-4.72,2.76-2.92,4.25-6.82,4.13-10.84-.12-4.02-1.83-7.82-4.77-10.58L37.09,272.38,297.57,26.3c3.17-2.88,4.97-6.97,4.95-11.25-.02-4.29-1.85-8.36-5.05-11.21-3.2-2.85-7.45-4.21-11.71-3.75h0Z"/>
</svg>