<?xml version="1.0" encoding="UTF-8"?>
<svg id="_레이어_1" data-name="레이어 1" xmlns="http://www.w3.org/2000/svg" viewBox="0 0 794.45 628.9">
  <defs>
    <style>
      .cls-1 {
        fill: gray;
        stroke-width: 0px;
      }
    </style>
  </defs>
  <path class="cls-1" d="M777.85,66.2H248.25c-9.15,0-16.55,7.4-16.55,16.55s7.4,16.55,16.55,16.55h529.65c9.15,0,16.55-7.4,16.55-16.55s-7.45-16.55-16.6-16.55h0Z"/>
  <path class="cls-1" d="M82.75,0C37.1,0,0,37.1,0,82.75s37.1,82.75,82.75,82.75,82.75-37.1,82.75-82.75S128.4,0,82.75,0ZM82.75,132.4c-27.4,0-49.65-22.25-49.65-49.65s22.25-49.65,49.65-49.65,49.65,22.25,49.65,49.65-22.3,49.65-49.65,49.65Z"/>
  <path class="cls-1" d="M777.85,297.9H248.25c-9.15,0-16.55,7.4-16.55,16.55s7.4,16.55,16.55,16.55h529.65c9.15,0,16.55-7.4,16.55-16.55s-7.45-16.55-16.6-16.55h0Z"/>
  <path class="cls-1" d="M82.75,231.7C37.1,231.7,0,268.8,0,314.45s37.1,82.75,82.75,82.75,82.75-37.1,82.75-82.75-37.1-82.75-82.75-82.75ZM82.75,364.1c-27.4,0-49.65-22.25-49.65-49.65s22.25-49.65,49.65-49.65,49.65,22.25,49.65,49.65-22.3,49.65-49.65,49.65Z"/>
  <path class="cls-1" d="M777.85,529.6H248.25c-9.15,0-16.55,7.4-16.55,16.55s7.4,16.55,16.55,16.55h529.65c9.15,0,16.55-7.4,16.55-16.55-.05-9.15-7.45-16.55-16.6-16.55h0Z"/>
  <path class="cls-1" d="M82.75,463.4c-45.65,0-82.75,37.1-82.75,82.75s37.1,82.75,82.75,82.75,82.75-37.1,82.75-82.75-37.1-82.75-82.75-82.75ZM82.75,595.8c-27.4,0-49.65-22.25-49.65-49.65s22.25-49.65,49.65-49.65,49.65,22.25,49.65,49.65-22.3,49.65-49.65,49.65Z"/>
</svg>