<?xml version="1.0" encoding="UTF-8"?>
<svg id="_레이어_1" data-name="레이어 1" xmlns="http://www.w3.org/2000/svg" viewBox="0 0 1018.02 1018.02">
  <defs>
    <style>
      .cls-1 {
        fill: #6c9f9c;
      }

      .cls-1, .cls-2 {
        stroke-width: 0px;
      }

      .cls-2 {
        fill: #eaeaea;
      }
    </style>
  </defs>
  <circle class="cls-2" cx="509.01" cy="509.01" r="509.01"/>
  <g>
    <path class="cls-1" d="M339.09,446.43c-4.75-4.75-10.3-7.13-16.63-7.13s-11.88,2.38-16.63,7.13c-4.75,4.75-7.13,10.3-7.13,16.63v47.53c0,54.66,18.22,102.19,53.87,141.79,35.65,40.4,83.97,64.16,136.25,70.5v47.53h-96.64c-6.34,0-11.88,2.38-16.63,7.13-4.75,4.75-7.13,10.3-7.13,16.63s2.38,11.88,7.13,16.63c4.75,4.75,10.3,7.13,16.63,7.13h232.89c6.34,0,11.88-2.38,16.63-7.13,4.75-4.75,7.13-10.3,7.13-16.63s-2.38-11.88-7.13-16.63c-3.96-4.75-9.51-7.13-15.85-7.13h-96.64v-47.53c53.07-5.54,100.6-30.1,136.25-70.5,35.65-40.4,53.87-87.93,53.87-141.79v-47.53c0-6.34-2.38-11.88-7.13-16.63-4.75-4.75-10.3-7.13-16.63-7.13s-11.88,2.38-16.63,7.13-7.13,10.3-7.13,16.63v47.53c0,45.95-15.84,84.76-47.53,117.24-31.69,32.48-70.5,48.32-115.65,48.32s-83.17-15.84-115.65-48.32c-31.69-32.48-47.53-71.29-47.53-117.24v-47.53c.79-6.34-1.59-11.88-6.34-16.63h0Z"/>
    <path class="cls-1" d="M590.99,595.35c22.18-23.76,33.27-51.49,33.27-84.76v-190.91c0-32.48-11.09-60.99-33.27-84.76-22.18-23.76-49.11-34.85-80.01-34.85s-57.83,11.88-80.01,34.85c-22.18,23.76-35.65,50.7-35.65,83.97v190.11c0,32.48,13.47,62.58,35.65,86.34,22.18,23.76,49.11,34.85,80.01,34.85s57.82-11.88,80.01-34.85Z"/>
  </g>
</svg>