<?xml version="1.0" encoding="UTF-8"?>
<svg id="_레이어_1" data-name="레이어 1" xmlns="http://www.w3.org/2000/svg" viewBox="0 0 1080.03 1080">
  <defs>
    <style>
      .cls-1 {
        fill: gray;
        stroke-width: 0px;
      }
    </style>
  </defs>
  <path class="cls-1" d="M924.02,160.8C822.02,57.6,685.22,0,540.02,0S262.82,55.2,160.82,156C57.62,256.8,1.22,392.4.02,536.4c-1.2,144,54,279.6,156,382.8,102,103.2,238.8,160.8,384,160.8s277.2-55.2,379.2-156c212.4-208.8,214.8-552,4.8-763.2h0ZM826.82,576h-250.8v250.8c0,20.4-16.8,36-36,36s-36-16.8-36-36v-250.8h-250.8c-20.4,0-36-16.8-36-36,0-20.4,16.8-36,36-36h250.8v-250.8c0-20.4,16.8-36,36-36s36,16.8,36,36v250.8h250.8c20.4,0,36,16.8,36,36,0,20.4-15.6,36-36,36Z"/>
</svg>