<?xml version="1.0" encoding="UTF-8"?>
<svg width="1200pt" height="1200pt" version="1.1" viewBox="0 0 1200 1200" xmlns="http://www.w3.org/2000/svg">
 <path d="m981.83 218.16c-210.54-210.54-553.13-210.54-763.67 0-210.54 210.54-210.54 553.13 0 763.67 210.54 210.55 553.13 210.55 763.67 0 210.55-210.54 210.55-553.13 0-763.67zm-127.59 604.25c21.289 21.301-10.523 53.125-31.824 31.824l-222.42-222.42-222.42 222.43c-21.289 21.289-53.113-10.523-31.812-31.824l222.41-222.42-223.07-223.07c-20.438-20.438 11.387-52.262 31.824-31.812l223.07 223.05 223.07-223.05c20.438-20.449 52.246 11.375 31.812 31.812l-223.07 223.07z"/>
</svg>
