<?xml version="1.0" encoding="UTF-8"?>
<svg id="_레이어_1" data-name="레이어 1" xmlns="http://www.w3.org/2000/svg" viewBox="0 0 302.52 544.37">
  <defs>
    <style>
      .cls-1 {
        fill: #999;
        stroke-width: 0px;
      }
    </style>
  </defs>
  <path class="cls-1" d="M16.76,544.28c3.38-.37,6.55-1.86,8.97-4.25l272.06-256.94c3.02-2.86,4.73-6.83,4.73-10.98s-1.71-8.13-4.73-10.98L25.73,4.18C22.82,1.41,18.93-.1,14.91,0c-4.02.1-7.84,1.8-10.6,4.72C1.55,7.65.06,11.55.18,15.57c.12,4.02,1.83,7.82,4.77,10.58l260.48,245.84L4.95,518.07C1.78,520.94-.02,525.03,0,529.32c.02,4.29,1.85,8.36,5.05,11.21,3.2,2.85,7.45,4.21,11.71,3.75h0Z"/>
</svg>