<?xml version="1.0" encoding="UTF-8"?>
<svg id="_레이어_2" data-name="레이어 2" xmlns="http://www.w3.org/2000/svg" viewBox="0 0 1065.32 374.14">
  <defs>
    <style>
      .cls-1 {
        fill: #6c9f9c;
        stroke-width: 0px;
      }
    </style>
  </defs>
  <g id="_레이어_1-2" data-name="레이어 1">
    <g>
      <path class="cls-1" d="M884.29,256.08c-1.66.4-168.26,38.91-330.47-38.16-41.16-19.55-80.34-46.22-118.24-72.02C318.39,66.22,197.31-16.3,7.42,101.66c-6.87,3.71-9.43,12.28-5.72,19.15,3.71,6.87,12.28,9.43,19.15,5.72,1.01-.45,99.75-44.7,216.45,53.13,8.93,7.5,18.23,15.49,27.89,23.84,84.7,72.96,198.07,170.67,354.75,170.65,79.85,0,171.09-25.38,275.37-92.37,6.46-3.42,9.23-11.22,6.36-17.95-2.87-6.73-10.41-10.13-17.35-7.84l-.03.09ZM283.66,182.02c-9.75-8.41-19.12-16.41-28.12-24.09-59.2-49.59-114.47-66.38-157.69-69.7,132.09-48.09,224.67,14.91,321.84,81.09,38.77,26.41,78.89,53.72,121.99,74.2,104.84,49.78,209.2,54.38,276.3,49.99-255.73,128.55-421.71-14.44-534.33-111.49h.02Z"/>
      <path class="cls-1" d="M1064.21,102.7c-2.54-5.93-8.73-9.43-15.12-8.55-1.62.23-159.38,22.1-314.88-57.42-166.55-85.12-329.86,3.87-336.73,7.69-6.06,3.1-9.03,10.1-7.05,16.62,1.98,6.51,8.35,10.67,15.11,9.87,1.22,0,121.34-8.3,260.16,99.87,42.7,33.23,90.12,45.52,136.85,45.49,127.64,0,250.12-91.41,257.11-96.82,5.18-3.87,7.06-10.77,4.55-16.73h0ZM683.19,148.41c-86.53-67.36-165.61-92.27-217.52-101.25,59.04-18.63,157.92-35.16,255.66,14.79,107.7,55.08,215.46,64.2,276.56,63.7-70.97,40.99-211.97,102.77-314.7,22.78v-.02Z"/>
    </g>
  </g>
</svg>